<svg width="16" height="12" viewBox="0 0 16 12" fill="none" xmlns="http://www.w3.org/2000/svg">
<path d="M15.4407 5.7C13.9257 2.1825 11.0757 0 8.00066 0C4.92566 0 2.07566 2.1825 0.56066 5.7C0.519363 5.79462 0.498047 5.89676 0.498047 6C0.498047 6.10324 0.519363 6.20537 0.56066 6.3C2.07566 9.8175 4.92566 12 8.00066 12C11.0757 12 13.9257 9.8175 15.4407 6.3C15.482 6.20537 15.5033 6.10324 15.5033 6C15.5033 5.89676 15.482 5.79462 15.4407 5.7ZM8.00066 10.5C5.62316 10.5 3.37316 8.7825 2.07566 6C3.37316 3.2175 5.62316 1.5 8.00066 1.5C10.3782 1.5 12.6282 3.2175 13.9257 6C12.6282 8.7825 10.3782 10.5 8.00066 10.5ZM8.00066 3C7.40732 3 6.8273 3.17595 6.33395 3.50559C5.8406 3.83524 5.45608 4.30377 5.22902 4.85195C5.00196 5.40013 4.94255 6.00333 5.0583 6.58527C5.17406 7.16721 5.45978 7.70176 5.87934 8.12132C6.2989 8.54088 6.83345 8.8266 7.41539 8.94236C7.99733 9.05811 8.60053 8.9987 9.14871 8.77164C9.69689 8.54458 10.1654 8.16006 10.4951 7.66671C10.8247 7.17336 11.0007 6.59334 11.0007 6C11.0007 5.20435 10.6846 4.44129 10.122 3.87868C9.55937 3.31607 8.79631 3 8.00066 3ZM8.00066 7.5C7.70399 7.5 7.41398 7.41203 7.16731 7.2472C6.92063 7.08238 6.72837 6.84811 6.61484 6.57402C6.50131 6.29994 6.4716 5.99834 6.52948 5.70736C6.58736 5.41639 6.73022 5.14912 6.94 4.93934C7.14978 4.72956 7.41705 4.5867 7.70803 4.52882C7.999 4.47094 8.3006 4.50065 8.57469 4.61418C8.84877 4.72771 9.08304 4.91997 9.24787 5.16664C9.41269 5.41332 9.50066 5.70333 9.50066 6C9.50066 6.39782 9.34263 6.77935 9.06132 7.06066C8.78002 7.34196 8.39849 7.5 8.00066 7.5Z" fill="#5D5A6F"/>
</svg>
