<svg width="32" height="32" viewBox="0 0 32 32" fill="none" xmlns="http://www.w3.org/2000/svg">
<path d="M8.00065 5.33325C6.52789 5.33325 5.33398 6.52716 5.33398 7.99992V11.9999C5.33398 13.4727 6.52789 14.6666 8.00065 14.6666H12.0007C13.4735 14.6666 14.6673 13.4727 14.6673 11.9999V7.99992C14.6673 6.52716 13.4735 5.33325 12.0007 5.33325H8.00065ZM20.0007 5.33325C18.5279 5.33325 17.334 6.52716 17.334 7.99992V11.9999C17.334 13.4727 18.5279 14.6666 20.0007 14.6666H24.0006C25.4734 14.6666 26.6673 13.4727 26.6673 11.9999V7.99992C26.6673 6.52716 25.4734 5.33325 24.0006 5.33325H20.0007ZM5.33398 19.9999C5.33398 18.5271 6.52789 17.3333 8.00065 17.3333H12.0007C13.4735 17.3333 14.6673 18.5271 14.6673 19.9999V23.9999C14.6673 25.4727 13.4735 26.6666 12.0007 26.6666H8.00065C6.52789 26.6666 5.33398 25.4727 5.33398 23.9999V19.9999ZM20.0007 17.3333C18.5279 17.3333 17.334 18.5271 17.334 19.9999V23.9999C17.334 25.4727 18.5279 26.6666 20.0007 26.6666H24.0006C25.4734 26.6666 26.6673 25.4727 26.6673 23.9999V19.9999C26.6673 18.5271 25.4734 17.3333 24.0006 17.3333H20.0007Z" fill="white"/>
</svg>
