<svg width="32" height="32" viewBox="0 0 32 32" fill="none" xmlns="http://www.w3.org/2000/svg">
<path d="M15.9995 16.0001C19.7328 16.0001 22.6662 13.0667 22.6662 9.33342C22.6662 5.60008 19.7328 2.66675 15.9995 2.66675C12.2662 2.66675 9.33282 5.60008 9.33282 9.33342C9.33282 13.0667 12.2662 16.0001 15.9995 16.0001ZM28.3995 27.7334C26.6662 20.9334 19.7328 16.6667 12.9328 18.4001C8.39949 19.6001 4.79949 23.0667 3.59949 27.7334C3.46615 28.4001 3.86615 29.2001 4.66615 29.3334C4.79949 29.3334 4.93282 29.3334 4.93282 29.3334H27.0662C27.8661 29.3334 28.3995 28.8001 28.3995 28.0001C28.3995 27.8667 28.3995 27.7334 28.3995 27.7334Z" fill="#7282A0"/>
</svg>
