<svg width="19" height="19" viewBox="0 0 19 19" fill="none" xmlns="http://www.w3.org/2000/svg">
<path d="M11.875 4.15625H4.75C4.43517 4.15661 4.13333 4.28184 3.91071 4.50446C3.68809 4.72708 3.56286 5.02892 3.5625 5.34375V16.625C3.5625 16.7341 3.59256 16.8411 3.64938 16.9342C3.7062 17.0273 3.78758 17.103 3.88458 17.1529C3.98159 17.2029 4.09047 17.2251 4.19928 17.2172C4.30809 17.2093 4.41262 17.1716 4.5014 17.1081L8.31199 14.3859L12.1237 17.1081C12.2124 17.1716 12.317 17.2093 12.4258 17.2172C12.5346 17.2251 12.6435 17.2029 12.7405 17.1529C12.8375 17.103 12.9188 17.0273 12.9756 16.9342C13.0325 16.8411 13.0625 16.7341 13.0625 16.625V5.34375C13.0621 5.02892 12.9369 4.72708 12.7143 4.50446C12.4917 4.28184 12.1898 4.15661 11.875 4.15625Z" fill="#191489"/>
<path d="M14.25 1.78125H6.53125C6.37378 1.78125 6.22276 1.84381 6.11141 1.95516C6.00006 2.06651 5.9375 2.21753 5.9375 2.375C5.9375 2.53247 6.00006 2.68349 6.11141 2.79484C6.22276 2.90619 6.37378 2.96875 6.53125 2.96875H14.25V14.25C14.25 14.4075 14.3126 14.5585 14.4239 14.6698C14.5353 14.7812 14.6863 14.8438 14.8438 14.8438C15.0012 14.8438 15.1522 14.7812 15.2636 14.6698C15.3749 14.5585 15.4375 14.4075 15.4375 14.25V2.96875C15.4371 2.65392 15.3119 2.35208 15.0893 2.12946C14.8667 1.90684 14.5648 1.78161 14.25 1.78125Z" fill="#191489"/>
</svg>
