<svg width="83" height="75" viewBox="0 0 83 75" fill="none" xmlns="http://www.w3.org/2000/svg">
<path opacity="0.25" d="M68.2742 6.61599H64.2849V4.01786C64.2849 1.8214 62.4911 0 60.2687 0C58.0464 0 56.2526 1.8214 56.2526 4.01786V6.61599H45.5161V4.01786C45.5161 1.8214 43.7223 0 41.5 0C39.2777 0 37.4839 1.8214 37.4839 4.01786V6.61599H26.7474V4.01786C26.7474 1.8214 24.9536 0 22.7313 0C20.509 0 18.7151 1.8214 18.7151 4.01786V6.61599H14.7258C6.61315 6.61599 0 13.2053 0 21.3481V60.2679C0 68.3839 6.61315 75 14.7258 75H68.2742C76.3869 75 83 68.3839 83 60.2679V21.3481C83 13.2053 76.3869 6.61599 68.2742 6.61599ZM74.9677 25.7679H8.03226V21.3481C8.03226 17.6517 11.031 14.6517 14.7258 14.6517H18.7151V17.0893C18.7151 19.3124 20.509 21.1071 22.7313 21.1071C24.9536 21.1071 26.7474 19.3124 26.7474 17.0893V14.6517H37.4839V17.0893C37.4839 19.3124 39.2777 21.1071 41.5 21.1071C43.7223 21.1071 45.5161 19.3124 45.5161 17.0893V14.6517H56.2526V17.0893C56.2526 19.3124 58.0464 21.1071 60.2687 21.1071C62.4911 21.1071 64.2849 19.3124 64.2849 17.0893V14.6517H68.2742C71.969 14.6517 74.9677 17.6517 74.9677 21.3481V25.7679Z" fill="white"/>
</svg>
