<svg width="40" height="40" viewBox="0 0 40 40" fill="none" xmlns="http://www.w3.org/2000/svg">
<path d="M25 8.75H10C9.33719 8.75076 8.70175 9.01439 8.23307 9.48307C7.76439 9.95175 7.50076 10.5872 7.5 11.25V35C7.50001 35.2297 7.56329 35.4549 7.68291 35.651C7.80252 35.847 7.97385 36.0064 8.17807 36.1115C8.38229 36.2166 8.61152 36.2634 8.84059 36.2467C9.06967 36.2301 9.28973 36.1507 9.47662 36.0172L17.4989 30.2861L25.5235 36.0172C25.7104 36.1507 25.9305 36.2301 26.1595 36.2467C26.3886 36.2634 26.6178 36.2166 26.822 36.1115C27.0262 36.0064 27.1975 35.847 27.3172 35.651C27.4367 35.4549 27.5 35.2297 27.5 35V11.25C27.4992 10.5872 27.2356 9.95175 26.7669 9.48307C26.2983 9.01439 25.6628 8.75076 25 8.75Z" fill="#7282A0"/>
<path d="M30 3.75H13.75C13.4185 3.75 13.1005 3.8817 12.8661 4.11612C12.6317 4.35054 12.5 4.66848 12.5 5C12.5 5.33152 12.6317 5.64946 12.8661 5.88388C13.1005 6.1183 13.4185 6.25 13.75 6.25H30V30C30 30.3315 30.1317 30.6495 30.3661 30.8839C30.6005 31.1183 30.9185 31.25 31.25 31.25C31.5815 31.25 31.8995 31.1183 32.1339 30.8839C32.3683 30.6495 32.5 30.3315 32.5 30V6.25C32.4992 5.58719 32.2356 4.95175 31.7669 4.48307C31.2983 4.01439 30.6628 3.75076 30 3.75Z" fill="#7282A0"/>
</svg>
