<svg width="24" height="24" viewBox="0 0 24 24" fill="none" xmlns="http://www.w3.org/2000/svg">
<path d="M18.6991 14.1001C18.4991 14.0001 18.1991 14.0001 17.9991 14.0001C16.7991 14.0001 15.6991 14.5001 14.8991 15.5001L9.79913 13.2001C9.99913 12.5001 9.99913 11.7001 9.79913 10.9001L14.8991 8.60005C16.2991 10.3001 18.7991 10.5001 20.4991 9.10005C22.1991 7.70005 22.3991 5.20005 20.9991 3.50005C19.5991 1.80005 17.0991 1.60005 15.3991 3.00005C14.4991 3.70005 13.9991 4.80005 13.9991 6.00005C13.9991 6.20005 13.9991 6.50005 14.0991 6.70005L8.79913 9.10005C7.19913 7.60005 4.69913 7.60005 3.09913 9.20005C1.59913 10.8001 1.59913 13.3001 3.19913 14.9001C4.79913 16.4001 7.19913 16.4001 8.79913 14.9001L14.0991 17.3001C13.6991 19.5001 15.0991 21.6001 17.2991 21.9001C19.4991 22.3001 21.5991 20.9001 21.8991 18.7001C22.2991 16.5001 20.8991 14.5001 18.6991 14.1001Z" fill="#A098AE"/>
</svg>
