<svg width="48" height="48" viewBox="0 0 48 48" fill="none" xmlns="http://www.w3.org/2000/svg">
<path d="M44.5603 3.43931L41.5603 0.439312C40.9753 -0.146438 40.0243 -0.146438 39.4393 0.439312L37.4998 2.37881L37.0603 1.93931C36.4753 1.35356 35.5243 1.35356 34.9393 1.93931L24.4393 12.4393C23.8536 13.0251 23.8536 13.9746 24.4393 14.5603L24.8781 14.9998L21.4393 18.4393C20.8536 19.0251 20.8536 19.9746 21.4393 20.5603L24.4393 23.5603C24.7318 23.8536 25.1158 23.9998 25.4998 23.9998C25.8838 23.9998 26.2678 23.8536 26.5603 23.5603L29.9998 20.1208L30.4393 20.5603C31.0243 21.1461 31.9753 21.1461 32.5603 20.5603L43.0603 10.0603C43.6461 9.47456 43.6461 8.52506 43.0603 7.93931L42.6216 7.49981L44.5603 5.56031C45.1461 4.97456 45.1461 4.02506 44.5603 3.43931Z" fill="url(#paint0_linear_833_4696)"/>
<path d="M17.9998 34.4998C17.6158 34.4998 17.2318 34.3536 16.9393 34.0603L10.9393 28.0603C10.3536 27.4746 10.3536 26.5251 10.9393 25.9393C11.5243 25.3536 12.4753 25.3536 13.0603 25.9393L19.0603 31.9393C19.6461 32.5251 19.6461 33.4746 19.0603 34.0603C18.7678 34.3536 18.3838 34.4998 17.9998 34.4998Z" fill="url(#paint1_linear_833_4696)"/>
<path d="M43.0603 7.93931L37.0603 1.93931C36.4753 1.35356 35.5243 1.35356 34.9393 1.93931L24.4393 12.4393C23.8536 13.0251 23.8536 13.9746 24.4393 14.5603L30.4393 20.5603C30.7318 20.8536 31.1158 20.9998 31.4998 20.9998C31.8838 20.9998 32.2678 20.8536 32.5603 20.5603L43.0603 10.0603C43.6461 9.47456 43.6461 8.52506 43.0603 7.93931Z" fill="url(#paint2_linear_833_4696)"/>
<path d="M24.8788 15L21.4393 18.4395C20.8536 19.0253 20.8536 19.9747 21.4393 20.5605L24.4393 23.5605C24.7318 23.8537 25.1158 24 25.4998 24C25.8838 24 26.2678 23.8537 26.5603 23.5605L29.9998 20.121L24.8788 15Z" fill="url(#paint3_linear_833_4696)"/>
<path d="M39.2889 37.7887C46.2354 30.8422 46.8504 19.8532 40.9524 12.1694L38.8217 14.3002C43.5579 20.7847 42.9504 29.8852 37.1679 35.6677C34.0502 38.7839 29.9064 40.4999 25.5002 40.4999C21.0939 40.4999 16.9502 38.7839 13.8324 35.6677C13.4447 35.2799 13.0734 34.8644 12.7104 34.4114L15.0002 32.1209L12.8792 29.9999L9.67216 33.2069C9.15766 33.7214 9.08641 34.5292 9.50191 35.1254C10.2047 36.1342 10.9269 37.0049 11.7114 37.7887C15.0392 41.1157 19.3577 43.0859 24.0002 43.4377V44.9999H18.0002C17.1722 44.9999 16.5002 45.6719 16.5002 46.4999C16.5002 47.3279 17.1722 47.9999 18.0002 47.9999H33.0002C33.8282 47.9999 34.5002 47.3279 34.5002 46.4999C34.5002 45.6719 33.8282 44.9999 33.0002 44.9999H27.0002V43.4377C31.6427 43.0859 35.9612 41.1157 39.2889 37.7887Z" fill="url(#paint4_linear_833_4696)"/>
<path d="M11.7118 37.7886C11.1651 37.2418 10.6491 36.6486 10.1473 35.9998H8.12156L5.56031 33.4393C4.97531 32.8536 4.02431 32.8536 3.43931 33.4393C2.85356 34.0251 2.85356 34.9746 3.43931 35.5603L6.43931 38.5603C6.72131 38.8416 7.10306 38.9998 7.50056 38.9998H13.0423C12.5841 38.6173 12.1393 38.2153 11.7118 37.7886Z" fill="url(#paint5_linear_833_4696)"/>
<defs>
<linearGradient id="paint0_linear_833_4696" x1="22.9393" y1="22.0611" x2="43.0611" y2="1.94007" gradientUnits="userSpaceOnUse">
<stop stop-color="#3C3C3C"/>
<stop offset="1" stop-color="#666666"/>
</linearGradient>
<linearGradient id="paint1_linear_833_4696" x1="13.9393" y1="31.0611" x2="16.0611" y2="28.9401" gradientUnits="userSpaceOnUse">
<stop stop-color="#FA9D74"/>
<stop offset="1" stop-color="#FADF9B"/>
</linearGradient>
<linearGradient id="paint2_linear_833_4696" x1="27.4393" y1="17.5603" x2="40.0611" y2="4.93931" gradientUnits="userSpaceOnUse">
<stop stop-color="#7055C2"/>
<stop offset="1" stop-color="#D055C2"/>
</linearGradient>
<linearGradient id="paint3_linear_833_4696" x1="22.9393" y1="22.0612" x2="27.4401" y2="17.5612" gradientUnits="userSpaceOnUse">
<stop stop-color="#FA9D74"/>
<stop offset="1" stop-color="#FADF9B"/>
</linearGradient>
<linearGradient id="paint4_linear_833_4696" x1="15.8147" y1="46.4354" x2="45.5169" y2="16.7339" gradientUnits="userSpaceOnUse">
<stop stop-color="#3C3C3C"/>
<stop offset="1" stop-color="#666666"/>
</linearGradient>
<linearGradient id="paint5_linear_833_4696" x1="6.17081" y1="38.2911" x2="9.30431" y2="35.1568" gradientUnits="userSpaceOnUse">
<stop stop-color="#7055C2"/>
<stop offset="1" stop-color="#D055C2"/>
</linearGradient>
</defs>
</svg>
