<svg width="158" height="158" viewBox="0 0 158 158" fill="none" xmlns="http://www.w3.org/2000/svg">
<path d="M0 79C1.36596e-06 63.3753 4.63327 48.1014 13.3139 35.1099C21.9945 22.1185 34.3327 11.9928 48.768 6.01351C63.2034 0.0341912 79.0876 -1.53027 94.4121 1.51797C109.737 4.5662 123.813 12.0902 134.861 23.1386C145.91 34.1869 153.434 48.2634 156.482 63.5879C159.53 78.9124 157.966 94.7966 151.986 109.232C146.007 123.667 135.882 136.005 122.89 144.686C109.899 153.367 94.6247 158 79 158V142.2C91.4998 142.2 103.719 138.493 114.112 131.549C124.505 124.604 132.606 114.734 137.389 103.186C142.173 91.6373 143.424 78.9299 140.986 66.6703C138.547 54.4107 132.528 43.1495 123.689 34.3109C114.85 25.4722 103.589 19.453 91.3297 17.0144C79.0701 14.5758 66.3627 15.8274 54.8144 20.6108C43.2661 25.3943 33.3956 33.4948 26.4511 43.888C19.5066 54.2811 15.8 66.5002 15.8 79H0Z" fill="#FAFAFA"/>
<path d="M79 158C66.0084 158 53.2172 154.796 41.7597 148.672C30.3021 142.548 20.5317 133.692 13.3139 122.89C6.09614 112.088 1.65381 99.6724 0.380407 86.7434C-0.892996 73.8143 1.04184 60.7707 6.01352 48.768C10.9852 36.7653 18.8403 26.174 28.8829 17.9322C38.9256 9.69038 50.8459 4.05251 63.5879 1.51796C76.3299 -1.01658 89.5003 -0.369558 101.932 3.40171C114.365 7.17298 125.675 13.9521 134.861 23.1386L123.689 34.3108C116.34 26.9617 107.292 21.5384 97.346 18.5214C87.4002 15.5044 76.8639 14.9867 66.6703 17.0144C56.4767 19.042 46.9405 23.5523 38.9063 30.1457C30.8722 36.7392 24.5882 45.2122 20.6108 54.8144C16.6335 64.4166 15.0856 74.8514 16.1043 85.1947C17.123 95.5379 20.6769 105.47 26.4511 114.112C32.2253 122.754 40.0417 129.838 49.2077 134.737C58.3738 139.637 68.6067 142.2 79 142.2V158Z" fill="#9C4DF4"/>
<circle cx="130" cy="31" r="9" fill="white" stroke="#9C4DF4" stroke-width="6"/>
</svg>
