<svg width="32" height="32" viewBox="0 0 32 32" fill="none" xmlns="http://www.w3.org/2000/svg">
<path d="M28.2671 24.1334C27.3337 24.0001 26.4004 23.8668 25.3337 23.8668C22.0004 23.8668 18.8004 24.8001 16.0004 26.6668C13.2004 24.9334 10.0004 23.8668 6.66705 23.8668C5.73372 23.8668 4.66705 24.0001 3.73372 24.1334C3.06705 24.2668 2.53372 24.9334 2.66705 25.7334C2.80039 26.5334 3.46705 26.9334 4.26705 26.8001C5.06705 26.6668 5.86705 26.5334 6.66705 26.5334C9.73372 26.5334 12.6671 27.4668 15.2004 29.3334C15.6004 29.7334 16.2671 29.7334 16.8004 29.3334C20.0004 27.0668 24.0004 26.1334 27.7337 26.8001C28.4004 26.9334 29.2004 26.4001 29.3337 25.7334C29.4671 24.9334 28.9337 24.2668 28.2671 24.1334ZM28.2671 2.80011C27.3337 2.66678 26.4004 2.53345 25.3337 2.53345C22.0004 2.53345 18.8004 3.46678 16.0004 5.33345C13.2004 3.46678 10.0004 2.53345 6.66705 2.53345C5.73372 2.53345 4.66705 2.66678 3.73372 2.80011C3.20039 2.80011 2.66705 3.46678 2.66705 4.00011V20.0001C2.66705 20.8001 3.20039 21.3334 4.00039 21.3334C4.13372 21.3334 4.13372 21.3334 4.26705 21.3334C5.06705 21.2001 5.86705 21.0668 6.66705 21.0668C9.73372 21.0668 12.6671 22.0001 15.2004 23.8668C15.6004 24.2668 16.2671 24.2668 16.8004 23.8668C20.0004 21.6001 24.0004 20.6668 27.7337 21.3334C28.4004 21.4668 29.2004 20.9334 29.3337 20.2668C29.3337 20.1334 29.3337 20.1334 29.3337 20.0001V4.00011C29.3337 3.46678 28.8004 2.80011 28.2671 2.80011Z" fill="#7282A0"/>
</svg>
