<svg width="16" height="16" viewBox="0 0 16 16" fill="none" xmlns="http://www.w3.org/2000/svg">
<path d="M10.7834 8.53247C11.5186 7.95397 12.0553 7.16066 12.3188 6.26293C12.5822 5.36519 12.5593 4.40767 12.2532 3.52357C11.9471 2.63947 11.373 1.87277 10.6109 1.33011C9.84877 0.787461 8.93644 0.49585 8.00085 0.49585C7.06526 0.49585 6.15294 0.787461 5.3908 1.33011C4.62866 1.87277 4.05461 2.63947 3.74851 3.52357C3.44241 4.40767 3.41949 5.36519 3.68292 6.26293C3.94636 7.16066 4.48306 7.95397 5.21835 8.53247C3.95841 9.03725 2.85907 9.87448 2.03752 10.9549C1.21598 12.0353 0.703024 13.3185 0.553352 14.6675C0.542518 14.766 0.551189 14.8656 0.578871 14.9608C0.606553 15.0559 0.652703 15.1447 0.714686 15.222C0.839866 15.3781 1.02194 15.4781 1.22085 15.5C1.41976 15.5219 1.61922 15.4638 1.77535 15.3386C1.93147 15.2135 2.03147 15.0314 2.05335 14.8325C2.21804 13.3664 2.91712 12.0123 4.01702 11.0291C5.11692 10.0458 6.54053 9.50224 8.01585 9.50224C9.49118 9.50224 10.9148 10.0458 12.0147 11.0291C13.1146 12.0123 13.8137 13.3664 13.9784 14.8325C13.9987 15.0168 14.0867 15.187 14.2252 15.3102C14.3637 15.4335 14.5429 15.5011 14.7284 15.5H14.8109C15.0075 15.4773 15.1871 15.3779 15.3108 15.2234C15.4344 15.0689 15.4919 14.8717 15.4709 14.675C15.3205 13.3221 14.8048 12.0357 13.979 10.9536C13.1532 9.87154 12.0485 9.03458 10.7834 8.53247ZM8.00085 7.99997C7.40751 7.99997 6.82749 7.82402 6.33414 7.49438C5.84079 7.16474 5.45628 6.6962 5.22921 6.14802C5.00215 5.59984 4.94274 4.99664 5.0585 4.4147C5.17425 3.83276 5.45997 3.29821 5.87953 2.87865C6.29909 2.45909 6.83364 2.17337 7.41558 2.05762C7.99752 1.94186 8.60072 2.00127 9.1489 2.22833C9.69708 2.4554 10.1656 2.83991 10.4953 3.33326C10.8249 3.82661 11.0009 4.40663 11.0009 4.99997C11.0009 5.79562 10.6848 6.55868 10.1222 7.12129C9.55956 7.6839 8.7965 7.99997 8.00085 7.99997Z" fill="#5D5A6F"/>
</svg>
