<svg width="327" height="323" viewBox="0 0 327 323" fill="none" xmlns="http://www.w3.org/2000/svg">
<path d="M316.057 291.494C314.604 290.678 312.786 290.02 310.857 289.582C306.499 288.596 301.642 288.523 296.906 288.462C255.869 287.963 215.114 287.78 174.066 287.78C141.745 287.525 109.436 287.257 77.1144 287.099C61.9181 287.026 46.6851 286.965 31.5376 287.671C25.2638 287.963 18.7336 288.438 13.5461 290.374C8.35861 292.309 5.06308 296.132 7.69952 299.224C12.0815 304.337 26.765 304.045 35.2481 304.057C100.659 304.154 166.083 303.96 231.494 303.753C253.392 303.68 275.289 303.619 297.15 302.986C302.044 302.84 307.098 302.657 311.492 301.476C315.898 300.307 319.548 297.897 319.279 295.255C319.145 293.819 317.888 292.528 316.057 291.494Z" fill="#D9E0FC"/>
<path d="M318.265 178.252C317.155 178.495 315.885 178.629 314.457 178.629C265.365 178.629 216.285 178.629 167.193 178.617C142.647 178.617 118.101 178.617 93.5673 178.605C82.1425 178.605 36.3216 184.911 31.3538 173.65C30.3041 171.276 30.3041 168.659 30.3041 166.102C30.3041 117.906 30.4384 69.7093 30.4384 21.5127C30.4384 19.8084 30.4384 18.0918 30.4384 16.3875C30.4384 12.784 33.6608 9.86228 37.6277 9.86228C91.3091 9.86228 144.978 9.86228 198.66 9.86228C226.404 9.86228 254.148 9.86228 281.904 9.86228C293.585 9.86228 325.564 4.43273 325.564 19.6866C325.564 48.6727 325.552 77.671 325.552 106.657C325.552 121.485 325.552 136.325 325.552 151.153C325.54 160.587 329.885 175.683 318.265 178.252Z" fill="#D9E0FC"/>
<path d="M301.703 168.452C297.223 171.52 288.935 169.779 282.039 169.779C268.454 169.779 254.881 169.779 241.296 169.779C204.544 169.779 167.804 169.779 131.052 169.779C94.0198 169.779 56.9993 169.779 19.9666 169.779C18.7216 169.779 17.7207 168.781 17.7207 167.539C17.7085 138.821 17.5376 110.09 17.4766 81.3719C17.44 67.0067 17.44 52.6536 17.501 38.2884C17.5377 28.8901 13.6928 8.24319 20.0277 0.890147C21.8097 -1.16724 44.8056 1.3771 47.674 1.3771C60.0142 1.35275 72.3542 1.3284 84.6822 1.30406C108.63 1.25536 132.578 1.20668 156.526 1.14581C188.701 1.14581 220.888 1.01188 253.062 0.938834C269.992 0.902312 301.483 0.999713 303.863 1.02406C306.927 1.06058 305.609 48.6119 305.633 52.1301C305.792 71.7423 305.694 91.3667 305.511 110.979C305.377 125.624 305.169 140.269 305.011 154.927C304.986 156.874 304.962 158.822 304.962 160.77C304.974 164.702 303.717 167.064 301.703 168.452Z" fill="#FF6652"/>
<path d="M295.782 153.892C286.969 153.661 278.132 153.831 269.319 153.831C260.495 153.831 251.67 153.843 242.857 153.843C225.207 153.855 207.57 153.868 189.92 153.88C154.816 153.904 119.7 153.916 84.5956 154.014C74.6967 154.038 64.7855 154.062 54.8865 154.099C44.9997 154.123 35.0397 154.001 25.1773 154.695C24.6037 154.732 24.6037 155.535 25.1773 155.584C33.9778 156.205 42.8271 156.095 51.6398 156.168C60.4646 156.241 69.2895 156.217 78.1021 156.241C95.7518 156.29 113.389 156.302 131.039 156.327C166.143 156.375 201.259 156.4 236.364 156.424C246.263 156.436 256.174 156.436 266.073 156.448C275.972 156.461 285.883 156.655 295.782 156.4C297.405 156.363 297.417 153.928 295.782 153.892Z" fill="#9C4DF4"/>
<path d="M285.639 152.553C285.346 151.652 284.833 150.861 284.125 150.203C283.21 149.302 282.136 148.669 280.891 148.328C280.671 148.255 280.452 148.182 280.244 148.109C279.28 147.805 278.315 147.768 277.363 147.975C276.399 148.024 275.508 148.304 274.678 148.827C274.19 149.205 273.702 149.582 273.213 149.96C272.505 150.617 272.005 151.384 271.724 152.285C271.395 152.845 271.236 153.454 271.236 154.111C271.016 155.073 271.065 156.022 271.37 156.984C271.614 157.556 271.859 158.128 272.103 158.713C272.75 159.796 273.616 160.661 274.703 161.306C274.898 161.44 275.081 161.574 275.276 161.708C276.424 162.365 277.656 162.706 278.975 162.706C279.622 162.621 280.268 162.535 280.928 162.45C282.173 162.097 283.247 161.476 284.162 160.575C284.882 159.918 285.383 159.127 285.676 158.226C286.139 157.349 286.347 156.412 286.31 155.414C286.31 154.367 286.103 153.429 285.639 152.553Z" fill="#9C4DF4"/>
<path d="M248.387 216.295L47.8807 213.337L48.674 6.39282L247.801 7.92673L248.387 216.295Z" fill="white" stroke="black" stroke-width="0.5" stroke-miterlimit="10"/>
<path d="M92.8331 169.657C92.235 177.278 91.6368 184.887 91.0388 192.508C90.9533 193.542 90.2209 194.419 89.1224 194.419C85.6071 194.431 82.104 194.443 78.5887 194.468C75.4396 194.48 72.2905 194.492 69.1414 194.504C68.3114 194.504 67.4448 194.516 66.7002 194.078C65.8824 193.591 65.4918 192.751 65.382 191.85C65.2233 190.377 65.3942 188.819 65.4308 187.334C65.5529 181.052 65.7848 174.77 66.4805 168.513C66.6026 167.381 67.872 167.125 68.4579 167.782C69.4832 167.466 70.716 167.612 71.729 167.612C72.9985 167.612 74.2556 167.624 75.5251 167.624C80.6271 167.649 85.7414 167.673 90.8435 167.673C91.8566 167.673 92.9185 168.586 92.8331 169.657ZM87.3404 190.609C87.8042 184.29 88.2558 177.972 88.7196 171.654C85.7292 171.666 82.7265 171.69 79.7361 171.702C77.8808 171.715 76.0255 171.727 74.1824 171.739C73.2304 171.751 72.2905 171.751 71.3384 171.751C70.9967 171.751 70.655 171.751 70.3132 171.751C69.947 172.056 69.4832 172.238 68.9949 172.262C69.0926 174.296 69.1536 176.341 69.1902 178.386C69.239 181.32 69.1902 184.254 69.1536 187.188C69.1414 187.955 69.1292 188.722 69.117 189.489C69.1048 189.89 69.1292 190.316 69.1292 190.743C69.2879 190.755 69.4344 190.767 69.5564 190.767L71.5826 190.755C76.8311 190.706 82.0797 190.657 87.3404 190.609Z" fill="#9C4DF4"/>
<path d="M92.8331 125.222C92.235 132.843 91.6368 140.452 91.0388 148.073C90.9533 149.108 90.2209 149.984 89.1224 149.984C85.6071 149.996 82.104 150.009 78.5887 150.033C75.4396 150.045 72.2905 150.057 69.1414 150.069C68.3114 150.069 67.4448 150.082 66.7002 149.643C65.8824 149.156 65.4918 148.316 65.382 147.415C65.2233 145.942 65.3942 144.384 65.4308 142.899C65.5529 136.617 65.7848 130.336 66.4805 124.078C66.6026 122.946 67.872 122.69 68.4579 123.348C69.4832 123.031 70.716 123.177 71.729 123.177C72.9985 123.177 74.2556 123.189 75.5251 123.189C80.6271 123.214 85.7414 123.238 90.8435 123.238C91.8566 123.238 92.9185 124.151 92.8331 125.222ZM87.3404 146.174C87.8042 139.856 88.2558 133.537 88.7196 127.219C85.7292 127.231 82.7265 127.256 79.7361 127.268C77.8808 127.28 76.0255 127.292 74.1824 127.304C73.2304 127.304 72.2905 127.316 71.3384 127.316C70.9967 127.316 70.655 127.316 70.3132 127.316C69.947 127.621 69.4832 127.803 68.9949 127.828C69.0926 129.861 69.1536 131.906 69.1902 133.951C69.239 136.885 69.1902 139.819 69.1536 142.753C69.1414 143.52 69.1292 144.287 69.117 145.054C69.1048 145.456 69.1292 145.882 69.1292 146.308C69.2879 146.32 69.4344 146.332 69.5564 146.332L71.5826 146.32C76.8311 146.271 82.0797 146.222 87.3404 146.174Z" fill="#9C4DF4"/>
<path d="M92.8331 80.7877C92.235 88.4085 91.6368 96.0172 91.0388 103.638C90.9533 104.673 90.2209 105.549 89.1224 105.549C85.6071 105.562 82.104 105.574 78.5887 105.598C75.4396 105.61 72.2905 105.622 69.1414 105.635C68.3114 105.635 67.4448 105.647 66.7002 105.209C65.8824 104.722 65.4918 103.882 65.382 102.981C65.2233 101.508 65.3942 99.9494 65.4308 98.4642C65.5529 92.1824 65.7848 85.9007 66.4805 79.6433C66.6026 78.5111 67.872 78.2555 68.4579 78.9129C69.4832 78.5963 70.716 78.7424 71.729 78.7424C72.9985 78.7424 74.2556 78.7546 75.5251 78.7546C80.6271 78.779 85.7414 78.8033 90.8435 78.8033C91.8566 78.8033 92.9185 79.7164 92.8331 80.7877ZM87.3404 101.739C87.8042 95.4207 88.2558 89.1024 88.7196 82.7842C85.7292 82.7964 82.7265 82.8207 79.7361 82.8329C77.8808 82.845 76.0255 82.8572 74.1824 82.8694C73.2304 82.8694 72.2905 82.8816 71.3384 82.8816C70.9967 82.8816 70.655 82.8816 70.3132 82.8816C69.947 83.1859 69.4832 83.3685 68.9949 83.3929C69.0926 85.4259 69.1536 87.4711 69.1902 89.5163C69.239 92.4503 69.1902 95.3842 69.1536 98.3181C69.1414 99.085 69.1292 99.852 69.117 100.619C69.1048 101.021 69.1292 101.447 69.1292 101.873C69.2879 101.885 69.4344 101.897 69.5564 101.897L71.5826 101.885C76.8311 101.836 82.0797 101.788 87.3404 101.739Z" fill="#9C4DF4"/>
<path d="M200.905 83.1127C194.497 82.9423 188.077 83.0762 181.669 83.0884C175.322 83.1005 168.962 83.1005 162.615 83.1127C149.787 83.1249 136.958 83.1857 124.142 83.2466C120.566 83.2588 116.99 83.2831 113.413 83.2953C109.788 83.3075 106.114 83.2344 102.501 83.4901C102.037 83.5266 102.037 84.1718 102.501 84.1962C105.687 84.4153 108.922 84.3544 112.12 84.3788C115.33 84.4153 118.528 84.4153 121.738 84.4275C128.085 84.464 134.444 84.4883 140.791 84.5249C153.62 84.5857 166.448 84.5736 179.264 84.5979C186.478 84.6101 193.704 84.7684 200.905 84.5736C201.857 84.5614 201.857 83.137 200.905 83.1127Z" fill="#969696"/>
<path d="M156.146 90.0396C142.292 89.8813 128.438 89.7474 114.585 89.7474C110.63 89.7474 106.663 89.7109 102.708 89.7718C101.952 89.784 101.952 90.9405 102.708 90.9527C116.55 91.1718 130.416 90.9648 144.269 90.8796C148.224 90.8553 152.191 90.7335 156.146 90.6848C156.561 90.6848 156.561 90.0518 156.146 90.0396Z" fill="#969696"/>
<path d="M198.683 97.4048C186.196 97.1735 173.697 97.3561 161.211 97.3805C148.724 97.4048 136.225 97.417 123.739 97.4414C116.684 97.4535 109.641 97.4657 102.586 97.5874C102.012 97.5996 102.012 98.464 102.586 98.4762C115.073 98.7075 127.571 98.6344 140.058 98.6466C152.545 98.6709 165.044 98.6831 177.53 98.7075C184.585 98.7196 191.628 98.7805 198.683 98.6466C199.489 98.6466 199.489 97.417 198.683 97.4048Z" fill="#969696"/>
<path d="M166.336 127.353C162.113 127.073 157.829 127.304 153.593 127.317C149.346 127.329 145.098 127.341 140.85 127.353C132.355 127.377 123.872 127.402 115.377 127.426C110.568 127.438 105.783 127.499 100.974 127.67C100.632 127.682 100.632 128.193 100.974 128.205C109.457 128.485 117.952 128.449 126.447 128.473C134.943 128.497 143.426 128.522 151.921 128.546C154.265 128.558 156.596 128.558 158.94 128.571C161.393 128.583 163.871 128.68 166.324 128.51C167.093 128.473 167.093 127.402 166.336 127.353Z" fill="#969696"/>
<path d="M192.055 137.129C180.215 136.788 168.351 136.922 156.511 136.897C144.782 136.873 133.064 136.861 121.334 136.824L111.337 136.8C108.017 136.788 104.661 136.642 101.341 136.897C100.535 136.958 100.535 138.091 101.341 138.151C104.295 138.383 107.273 138.261 110.227 138.261C113.193 138.249 116.147 138.249 119.113 138.237C125.032 138.224 130.965 138.212 136.884 138.2C148.614 138.176 160.332 138.164 172.062 138.139C178.726 138.127 185.391 138.127 192.055 137.932C192.568 137.908 192.568 137.141 192.055 137.129Z" fill="#969696"/>
<path d="M195.522 174.539C183.157 174.235 170.793 174.381 158.428 174.393C146.064 174.393 133.699 174.405 121.334 174.442C114.414 174.466 107.481 174.551 100.56 174.466C99.7544 174.454 99.7544 175.72 100.56 175.72C112.925 175.574 125.289 175.781 137.654 175.793C150.018 175.793 162.383 175.805 174.747 175.805C181.668 175.805 188.589 175.817 195.522 175.647C196.23 175.635 196.23 174.563 195.522 174.539Z" fill="#969696"/>
<path d="M120.554 181.064C114.011 181.064 107.481 181.198 100.951 181.259C100.487 181.259 100.487 181.965 100.951 181.965C107.481 182.026 114.023 182.16 120.554 182.16C121.274 182.172 121.274 181.064 120.554 181.064Z" fill="#969696"/>
<path d="M186.672 181.88C179.434 181.405 172.135 181.612 164.885 181.649C157.561 181.685 150.238 181.734 142.914 181.77C138.789 181.795 134.663 181.819 130.55 182.026C130.086 182.05 130.086 182.72 130.55 182.732C137.8 183.097 145.075 183 152.337 183.037C159.661 183.073 166.984 183.122 174.308 183.122C178.433 183.122 182.559 183.146 186.672 182.878C187.319 182.842 187.331 181.929 186.672 181.88Z" fill="#969696"/>
<path d="M158.61 189.05C151.372 188.673 144.073 188.953 136.835 188.977C129.646 189.001 122.432 188.977 115.243 189.233C111.13 189.379 106.992 189.33 102.878 189.342C102.463 189.342 102.463 189.987 102.878 189.987C117.342 190.06 131.794 190.328 146.258 190.389C150.384 190.401 154.509 190.499 158.623 190.28C159.404 190.243 159.404 189.099 158.61 189.05Z" fill="#969696"/>
<path d="M232.225 33.5164C225.243 32.9686 218.066 33.3947 211.06 33.3947C204.444 33.3947 197.829 33.4069 191.226 33.4069C177.775 33.419 164.336 33.419 150.885 33.4312C137.434 33.4434 123.995 33.4677 110.545 33.5286C96.9473 33.5895 83.0936 33.0173 69.5451 34.186C66.5791 34.4416 66.5668 38.4712 69.5451 38.739C83.0936 39.9077 96.9473 39.3356 110.545 39.3964C123.995 39.4573 137.434 39.4817 150.885 39.4938C164.336 39.506 177.775 39.506 191.226 39.5182C197.841 39.5182 204.457 39.5303 211.06 39.5303C218.066 39.5303 225.231 39.9564 232.225 39.4086C236.07 39.0921 236.082 33.8208 232.225 33.5164Z" fill="black"/>
<path d="M199.671 50.4988C197.437 48.7336 195.667 49.0501 192.836 49.0501C190.199 49.0501 187.563 49.0501 184.926 49.0501L168.448 49.0623C157.243 49.0745 146.038 49.0745 134.833 49.0866L101.877 49.111C96.1651 49.111 90.4528 49.1719 84.7404 49.2449C80.0046 49.3058 73.6575 48.3927 69.361 50.5475C68.2258 51.1197 68.2258 52.9336 69.361 53.5058C73.6697 55.6727 79.9924 54.7475 84.7404 54.8084C90.2331 54.8814 95.7257 54.9301 101.218 54.9423C112.423 54.9545 123.628 54.9545 134.833 54.9667L167.789 54.991C173.502 54.991 179.214 55.0032 184.926 55.0032C187.563 55.0032 190.199 55.0032 192.836 55.0032C195.594 55.0032 197.462 55.2953 199.671 53.5545C200.538 52.8849 200.525 51.1806 199.671 50.4988Z" fill="black"/>
<path d="M148.75 143.763C146.834 143.228 145.308 141.097 144.527 139.332C143.697 137.445 143.855 134.974 145.442 133.659C146.455 132.819 147.859 132.6 149.177 132.734C153.266 133.184 156.415 136.848 157.538 140.805C158.661 144.749 158.185 148.962 157.709 153.04C157.355 156.022 157.001 159.005 156.647 161.988C155.964 167.782 156.733 173.845 156.733 179.688C156.733 180.419 156.757 181.174 157.111 181.807C157.77 182.975 159.259 183.304 160.59 183.511C166.973 184.534 173.54 185.763 180.034 185.532C185.246 185.349 188.224 183.803 192.972 187.48C195.572 189.488 197.561 192.617 197.232 195.88C197.049 197.633 196.219 199.276 195.096 200.652C190.665 206.045 182.756 206.775 175.762 206.605C167.51 206.398 159.272 205.522 151.155 203.988C142.916 202.417 137.167 198.302 136.471 189.598C135.812 181.356 138.387 173.127 140.633 165.299C142.72 158.019 146.797 151.311 148.665 144.092C148.701 143.958 148.726 143.861 148.75 143.763Z" fill="#FBC2AA"/>
<path d="M195.011 191.692C194.95 191.326 194.889 190.961 194.828 190.608C194.303 186.993 193.803 182.476 197.746 181.344C200.345 180.589 204.898 180.93 206.631 178.52C207.193 177.74 207.352 176.766 207.486 175.829C207.693 174.49 207.889 173.139 208.096 171.8C200.541 173.09 197.392 166.346 196.439 160.04C195.463 153.6 195.671 145.565 201.358 141.255C204.984 138.504 210.061 137.846 214.321 139.453C218.581 141.06 221.913 144.834 223.122 149.217C224.013 152.455 222.951 153.636 222.768 156.984C222.548 160.77 222.89 167.307 222.682 171.093C222.536 173.638 222.755 176.608 224.147 178.824C224.782 179.834 225.551 180.699 226.625 181.246C227.406 181.648 229.432 181.429 229.92 181.965C232.691 184.996 235.279 188.21 238.281 190.998C231.19 193.968 223.781 196.086 216.201 197.377C210.891 198.29 200.15 201.419 196.488 195.782C195.683 194.54 195.28 193.128 195.011 191.692Z" fill="#FBC2AA"/>
<path d="M257.823 209.527C257.066 200.189 252.867 190.621 244.335 185.946C241.198 184.229 237.744 183.194 234.278 182.379C232.495 181.953 230.689 181.588 228.907 181.186C226.905 180.735 226.502 181.21 225.135 182.708C222.316 185.824 217.861 187.212 213.674 186.774C211.025 186.506 208.474 185.544 206.204 184.181C203.738 182.695 202.872 180.869 199.747 181.04C190.288 181.575 180.84 182.428 171.429 183.596C172.125 191.777 172.674 203.367 174.383 211.389C179.363 210.89 190.373 209.794 190.361 211.304C190.349 213.605 190.397 215.918 190.471 218.219C190.629 222.711 190.91 227.203 191.093 231.695C191.288 236.468 191.642 241.24 192.07 245.988C192.558 251.405 193.388 256.725 194.596 261.984C206.9 266.074 220.937 265.076 234.131 263.883C237.89 263.542 241.796 263.165 245.055 261.254C254.21 255.873 254.6 239.949 255.906 230.685C256.919 223.551 258.409 216.843 257.823 209.527Z" fill="#FF6652"/>
<path d="M163.433 302.572C163.592 302.34 163.763 302.109 163.933 301.89C167.119 297.812 172.624 295.158 177.128 292.759C182.096 290.118 187.649 287.939 193.374 288.267C198.537 288.559 205.702 292.053 206.776 297.507C206.898 298.128 206.947 298.786 206.703 299.358C206.093 300.794 204.152 300.916 202.589 300.928C195.925 300.989 189.517 303.034 183.292 305.238C180.094 306.37 176.908 307.575 173.662 308.61C170.769 309.535 163.738 313.589 161.712 309.377C160.601 307.076 162.151 304.446 163.433 302.572Z" fill="black"/>
<path d="M134.543 247.814C137.24 244.843 141.073 242.92 145.003 242.177C150.52 241.142 156.22 242.141 161.64 243.638C173.113 246.791 183.867 252.099 195.389 255.057C200.503 256.372 203.836 255.885 208.828 255.483C215.163 254.972 221.668 255.593 228.04 255.215C233.996 254.862 240.441 254.4 246.019 256.043C246.751 255.556 247.484 255.081 248.216 254.594C254.441 250.516 260.654 246.462 268.466 247.947C274.605 249.116 280.537 252.221 284.333 257.261C288.373 262.617 287.165 269.617 283.54 274.961C280.537 279.381 276.107 282.643 271.517 285.382C255.686 294.854 238.39 300.66 219.703 299.37C217.201 299.2 214.259 299.163 212.453 301.172C211.782 301.927 211.379 306.054 209.877 305.871C208.022 305.652 204.458 305.14 202.713 304.507C193.265 301.111 183.83 297.702 174.383 294.306C166.083 291.311 157.734 288.304 150.178 283.763C143.636 279.843 137.716 274.535 134.25 267.657C131.748 262.702 129.697 256.177 132.309 251.027C132.919 249.847 133.664 248.775 134.543 247.814Z" fill="#9C4DF4"/>
<path d="M251.732 262.057C246.423 264.699 240.869 266.391 235.779 269.532C230.702 272.661 225.893 276.313 220.363 278.687C216.787 280.221 211.587 280.817 208.157 282.521" stroke="black" stroke-width="0.5" stroke-miterlimit="10"/>
<path d="M212.575 300.454C212.587 300.441 212.587 300.417 212.599 300.405C213.1 299.26 213.588 298.116 214.088 296.972C215.077 294.695 216.066 292.431 217.042 290.154C217.152 289.899 225.635 294.196 226.368 294.793C226.697 295.06 227.014 295.353 227.222 295.718C227.515 296.217 227.576 296.814 227.649 297.386C227.845 298.993 228.089 300.636 227.783 302.231C227.478 303.826 226.49 305.396 224.952 305.907C223.78 306.297 222.511 306.017 221.314 305.749C219.032 305.226 216.798 304.739 214.552 304.081C213.905 303.887 212.209 303.826 211.745 303.363C211.159 302.791 212.319 301.062 212.575 300.454Z" fill="#FBC2AA"/>
<path d="M222.023 291.895C222.646 291.98 223.293 292.005 223.964 291.944C225.331 291.834 226.674 291.445 228.041 291.469C230.763 291.518 231.947 293.636 233.082 295.779C235.084 299.565 238.696 302.328 241.626 305.372C245.3 309.182 247.424 312.773 246.826 318.227C246.618 320.151 245.837 322.354 243.969 322.878C242.248 323.365 240.552 322.16 239.173 321.027C235.425 317.96 231.666 314.904 227.919 311.836C226.21 310.436 224.464 308.573 222.524 307.526C221.291 306.869 219.887 306.382 218.606 305.737C219.985 301.184 221.144 296.57 222.023 291.895Z" fill="black"/>
<path d="M202.872 264.541C202.189 264.2 201.664 263.579 201.261 262.422C200.578 260.475 200.98 258.174 202.079 256.457C203.495 254.242 206.095 252.537 208.67 252.002C211.319 251.442 213.882 250.504 216.579 249.956C218.52 249.567 220.424 249.031 222.328 248.496C228.151 246.864 234.424 245.622 239.954 243.188C240.295 243.042 240.637 242.871 240.833 242.555C241.089 242.129 240.979 241.593 240.857 241.106C239.002 233.668 237.305 226.193 235.755 218.682C235.23 216.125 234.717 213.544 234.742 210.939C234.791 206.203 236.695 201.516 239.966 198.083C241.968 195.977 244.738 194.285 247.619 194.614C249.987 194.894 252.025 196.525 253.368 198.509C254.711 200.494 255.431 202.795 256.151 205.059C258.568 212.716 261.375 220.471 262.461 228.433C262.742 230.515 262.73 232.621 262.718 234.715C262.681 240.741 262.522 247.144 259.202 252.172C248.266 268.68 222.902 266.647 205.899 265.064C204.63 264.979 203.653 264.93 202.872 264.541Z" fill="#FBC2AA"/>
<path d="M207.681 136.313C204.605 136.775 201.651 138.017 199.173 140.038C196.415 142.29 195.548 144.676 194.974 148.207C194.938 148.438 194.913 148.693 195.048 148.888C195.194 149.095 195.487 149.144 195.743 149.18C200.137 149.704 204.556 150.081 208.987 150.313C209.475 150.337 209.975 150.361 210.427 150.179C211.55 149.728 211.989 148.207 213.137 147.817C213.295 149.29 213.185 150.8 212.832 152.236C212.673 152.869 212.465 153.539 212.673 154.16C213.088 155.413 214.565 155.389 215.517 155.961C216.701 156.667 217.848 158.104 218.3 159.394C218.898 161.099 219.166 162.961 220.216 164.471C220.485 164.86 220.802 165.213 221.107 165.566C221.681 166.224 222.242 166.881 222.816 167.539C223.17 167.271 223.341 166.845 223.487 166.443C224.683 163.229 225.953 160.04 226.71 156.704C227.393 153.709 227.369 150.52 226.588 147.549C226.246 146.21 225.623 144.859 225.001 143.629C224.659 142.947 224.207 142.229 223.768 141.596C223.634 141.401 222.316 139.685 222.084 139.831C222.377 139.636 222.743 139.271 222.608 138.881C222.45 138.419 221.376 138.747 221.083 138.906C221.254 138.638 221.498 138.407 221.669 138.139C221.839 137.871 221.949 137.518 221.815 137.226C221.73 137.043 221.559 136.909 221.376 136.812C220.9 136.58 220.326 136.641 219.874 136.897C219.398 137.165 218.995 137.652 218.886 138.175C215.273 136.593 211.672 135.716 207.681 136.313Z" fill="black"/>
<path d="M160.26 252.878C170.891 257.674 179.447 266.001 189.115 272.502C198.147 278.565 208.156 283.021 218.104 287.452C217.579 288.584 217.371 289.716 216.859 290.848" stroke="black" stroke-width="0.5" stroke-miterlimit="10"/>
<path d="M205.666 162.389C205.031 164.459 202.492 165.713 200.466 164.97" stroke="#1C1C1B" stroke-width="0.5" stroke-miterlimit="10"/>
<path d="M216.395 161.78C220.313 162.754 222.754 158.64 221.558 155.949C219.898 152.212 214.649 152.833 213.685 156.765" fill="#FBC2AA"/>
<path d="M218.396 155.645C217.664 155.438 216.81 155.56 216.187 155.961C215.565 156.363 215.211 157.021 215.235 157.666" stroke="#1C1C1B" stroke-width="0.5" stroke-miterlimit="10"/>
<path d="M247.568 189.988C240.416 190.742 233.861 195.697 231.212 202.381C228.466 209.32 229.833 217.111 231.237 224.44C235.851 224.306 239.927 224.622 244.517 223.722C250.473 222.553 256.259 220.715 261.861 218.45C260.201 207.847 257.125 197.682 249.533 190.036C248.801 189.282 248.618 189.878 247.568 189.988Z" fill="#FF6652"/>
<path d="M166.926 121.412C160.994 124.005 155.623 127.353 150.533 131.346C148.068 133.281 145.736 135.46 143.539 137.688C142.368 138.881 141.257 140.147 140.158 141.401C139.926 140.707 139.694 140.026 139.462 139.344C138.718 137.128 137.876 134.974 136.948 132.831C136.081 130.798 135.129 128.801 134.104 126.841C133.03 124.784 131.993 122.033 129.795 120.998C128.282 120.28 126.927 121.18 126.72 122.763C126.414 125.1 128.27 127.267 129.319 129.24C130.357 131.2 131.321 133.184 132.2 135.217C133.006 137.055 133.75 138.991 134.421 140.914C135.154 142.996 135.666 145.175 136.435 147.233C137.192 149.254 139.829 149.753 141.061 147.829C142.66 145.321 144.906 143.045 146.945 140.878C149.032 138.662 151.217 136.568 153.45 134.499C157.954 130.323 162.751 126.403 167.719 122.787C168.561 122.179 167.866 120.998 166.926 121.412Z" fill="#9C4DF4"/>
<path d="M236.157 270.372H175.896C175.018 270.372 174.297 269.653 174.297 268.777C174.297 267.9 175.018 267.182 175.896 267.182H236.157C237.036 267.182 237.756 267.9 237.756 268.777C237.756 269.653 237.036 270.372 236.157 270.372Z" fill="black"/>
<path d="M227.223 268.205H174.481L163.532 241.227C163.178 240.351 163.825 239.389 164.777 239.389H214.626C215.175 239.389 215.664 239.718 215.871 240.229L227.223 268.205Z" fill="black"/>
<path d="M189.823 253.815C190.384 255.276 192.276 256.457 194.046 256.457C195.816 256.457 196.804 255.276 196.243 253.815C195.681 252.354 193.79 251.173 192.02 251.173C190.25 251.173 189.261 252.354 189.823 253.815Z" stroke="white" stroke-width="0.5" stroke-miterlimit="10"/>
<path d="M207.704 171.641C207.802 172.652 207.716 173.662 207.619 174.66C207.68 174.648 207.753 174.624 207.814 174.612C209.889 173.966 211.598 172.286 212.477 170.302C211.024 171.105 209.376 171.556 207.704 171.641Z" fill="black"/>
<path d="M148.848 143.921C146.566 142.363 144.259 140.793 142.416 138.747C142.037 138.333 141.683 137.871 141.586 137.323C141.488 136.775 141.769 136.13 142.306 135.984C142.904 135.826 143.453 136.325 143.917 136.751C145.663 138.37 147.969 139.405 150.35 139.624" fill="white"/>
<path d="M148.848 143.921C146.566 142.363 144.259 140.793 142.416 138.747C142.037 138.333 141.683 137.871 141.586 137.323C141.488 136.775 141.769 136.13 142.306 135.984C142.904 135.826 143.453 136.325 143.917 136.751C145.663 138.37 147.969 139.405 150.35 139.624" stroke="#1C1C1B" stroke-width="0.5" stroke-miterlimit="10"/>
<path d="M228.479 312.907C228.577 312.847 228.675 312.774 228.772 312.7C228.882 312.615 229.004 312.567 229.126 312.506C229.37 312.396 229.602 312.287 229.846 312.189C229.749 312.238 229.639 312.274 229.541 312.323C229.993 312.128 230.432 311.885 230.823 311.593C230.921 311.52 231.006 311.447 231.104 311.361C231.262 311.215 231.421 311.081 231.641 311.02C232.031 310.899 232.52 311.094 232.727 311.447C232.91 311.763 232.898 312.116 232.739 312.433C232.703 312.506 232.654 312.567 232.617 312.64C232.532 312.773 232.446 312.907 232.349 313.029C232.105 313.358 231.848 313.674 231.555 313.954C231.262 314.247 230.945 314.514 230.591 314.721C230.371 314.855 230.139 315.001 229.883 315.05C229.627 315.111 229.358 315.135 229.102 315.16C228.992 315.147 228.882 315.135 228.785 315.111C228.626 315.074 228.492 315.001 228.37 314.892C228.174 314.733 227.991 314.514 227.93 314.259C227.796 313.723 228.016 313.212 228.479 312.907Z" fill="#FF6652"/>
<path d="M225.561 309.56C225.622 309.353 225.732 309.17 225.879 309.012C226.147 308.708 226.428 308.403 226.697 308.087C226.819 307.953 226.953 307.868 227.124 307.819C227.282 307.734 227.453 307.697 227.636 307.709C227.819 307.697 227.99 307.746 228.149 307.819C228.308 307.868 228.454 307.965 228.576 308.087C228.649 308.172 228.71 308.269 228.784 308.355C228.906 308.561 228.967 308.781 228.967 309.012C228.955 309.134 228.93 309.243 228.918 309.365C228.857 309.584 228.747 309.779 228.576 309.949C228.271 310.229 227.966 310.497 227.649 310.765C227.539 310.887 227.404 310.972 227.246 311.021C227.099 311.094 226.941 311.13 226.77 311.13C226.599 311.142 226.44 311.106 226.294 311.021C226.135 310.972 226.001 310.887 225.891 310.765C225.83 310.68 225.757 310.595 225.696 310.509C225.586 310.315 225.525 310.108 225.525 309.876C225.525 309.779 225.537 309.669 225.561 309.56Z" fill="#FF6652"/>
<path d="M221.948 306.382C222.144 306.09 222.339 305.798 222.534 305.506C222.608 305.372 222.717 305.25 222.84 305.177C222.949 305.067 223.096 305.006 223.242 304.958C223.401 304.909 223.56 304.897 223.718 304.933C223.877 304.946 224.023 304.982 224.158 305.079C224.243 305.14 224.316 305.201 224.402 305.262C224.548 305.408 224.658 305.591 224.707 305.786C224.719 305.895 224.731 305.992 224.756 306.102C224.756 306.321 224.695 306.516 224.597 306.699C224.402 306.991 224.207 307.283 224.011 307.575C223.938 307.709 223.828 307.831 223.706 307.904C223.596 308.013 223.45 308.074 223.303 308.123C223.145 308.172 222.986 308.184 222.827 308.147C222.669 308.135 222.522 308.099 222.388 308.001C222.302 307.94 222.229 307.879 222.144 307.819C221.997 307.672 221.887 307.49 221.839 307.295C221.826 307.186 221.814 307.088 221.802 306.979C221.778 306.772 221.839 306.565 221.948 306.382Z" fill="#FF6652"/>
<path d="M179.484 303.57C179.557 303.314 179.753 303.047 179.985 302.925C180.241 302.791 180.546 302.73 180.827 302.815C180.912 302.852 180.998 302.888 181.083 302.925C181.242 303.022 181.376 303.156 181.474 303.314C181.657 303.558 181.852 303.801 182.035 304.045C182.133 304.167 182.243 304.276 182.34 304.386C182.389 304.434 182.438 304.483 182.475 304.532C182.56 304.617 182.645 304.714 182.706 304.824C182.768 304.921 182.816 305.055 182.853 305.165C182.938 305.433 183.012 305.701 183.097 305.968C183.195 306.297 183.06 306.65 182.792 306.857C182.536 307.052 182.145 307.101 181.852 306.918C181.657 306.796 181.474 306.674 181.278 306.553C181.23 306.516 181.181 306.492 181.132 306.455C180.937 306.321 180.778 306.175 180.656 305.968C180.583 305.859 180.522 305.749 180.448 305.64C180.192 305.214 179.875 304.824 179.582 304.422C179.435 304.191 179.423 303.814 179.484 303.57Z" fill="#FF6652"/>
<path d="M184.148 301.975C184.221 301.719 184.417 301.452 184.648 301.33C185.027 301.123 185.503 300.965 185.771 301.379C186.199 302.048 186.626 302.718 187.065 303.387C187.407 303.923 187.761 304.544 187.553 305.14C187.492 305.335 187.358 305.518 187.163 305.615C186.894 305.737 186.577 305.652 186.308 305.506C185.845 305.25 185.588 304.799 185.308 304.361C185.234 304.252 185.173 304.142 185.1 304.033C184.844 303.606 184.526 303.217 184.233 302.815C184.099 302.596 184.075 302.219 184.148 301.975Z" fill="#FF6652"/>
<path d="M175.2 305.396C175.249 305.238 175.347 305.092 175.469 304.982C175.713 304.751 176.042 304.593 176.384 304.605C176.714 304.617 177.08 304.727 177.3 304.982C177.788 305.567 178.276 306.139 178.752 306.723C178.874 306.845 178.972 306.979 179.021 307.137C179.106 307.295 179.143 307.454 179.131 307.636C179.143 307.819 179.094 307.977 179.021 308.135C178.972 308.294 178.874 308.44 178.752 308.549C178.508 308.781 178.178 308.939 177.837 308.927C177.507 308.914 177.141 308.805 176.921 308.549C176.433 307.965 175.945 307.393 175.469 306.808C175.347 306.687 175.249 306.553 175.2 306.394C175.115 306.236 175.078 306.078 175.09 305.895C175.078 305.713 175.115 305.554 175.2 305.396Z" fill="#FF6652"/>
<path d="M282.296 263.067C281.734 264.187 282.027 265.587 281.49 266.72C281.1 267.56 280.318 268.144 279.781 268.911C278.951 270.104 278.817 271.784 279.61 273.001C280.392 274.219 282.113 274.791 283.419 274.146C284.456 273.634 285.054 272.514 285.469 271.431C286.324 269.191 287.227 265.685 286.495 263.299C285.884 261.363 283.345 260.949 282.296 263.067Z" fill="black"/>
<path d="M132.662 254.728C133.602 253.974 134.993 253.791 136.08 254.351C137.154 254.911 137.825 256.189 137.593 257.37C137.471 258.015 137.105 258.624 137.081 259.281C137.044 260.121 137.557 260.888 137.825 261.692C138.228 262.885 138.057 264.297 137.215 265.222C136.373 266.16 134.847 266.464 133.797 265.782C132.686 265.052 132.406 263.579 132.198 262.264C131.832 259.902 130.38 256.554 132.662 254.728Z" fill="black"/>
<path d="M192.435 208.589C192.325 208.48 192.105 208.455 191.996 208.589C191.703 208.955 191.385 209.32 191.117 209.697C190.982 209.88 190.848 210.062 190.714 210.245C190.58 210.428 190.421 210.61 190.299 210.817C190.152 211.061 190.482 211.304 190.69 211.109C190.848 210.951 190.995 210.768 191.141 210.598C191.288 210.428 191.434 210.257 191.581 210.087C191.886 209.746 192.154 209.381 192.435 209.028C192.533 208.894 192.557 208.723 192.435 208.589Z" fill="black"/>
<path d="M238.182 224.208C237.255 224.22 236.352 224.403 235.485 224.719C235.216 222.881 234.948 221.055 234.667 219.217C234.374 217.281 234.02 215.346 233.752 213.398C233.74 213.3 233.569 213.325 233.581 213.422C233.801 215.406 233.935 217.391 234.167 219.375C234.399 221.323 234.655 223.271 234.923 225.219C234.948 225.377 235.168 225.486 235.302 225.438C236.217 225.06 237.169 224.866 238.17 224.841C238.597 224.829 238.597 224.208 238.182 224.208Z" fill="black"/>
<path d="M105.212 286.721C103.467 289.96 99.756 291.53 96.3506 292.321C95.3253 292.565 94.2878 292.747 93.2503 292.942C92.4325 293.088 91.5659 293.186 90.7847 293.49C89.0026 294.172 90.9556 295.267 91.8588 295.669C92.3959 295.913 92.5302 296.692 92.2494 297.167C91.9199 297.702 91.2974 297.8 90.7481 297.556C90.0036 297.215 89.1858 296.716 88.6121 296.071L87.4525 299.967H69.9493L68.5822 275.278L94.9714 274.84L94.2756 277.165C97.1928 276.325 100.781 276.008 103.393 277.761C106.347 279.758 106.835 283.69 105.212 286.721ZM102.209 279.758C99.7805 278.054 96.2285 278.699 93.6165 279.551C93.5921 279.563 93.5677 279.575 93.5432 279.575L89.9914 291.445C90.6017 291.214 91.273 291.055 91.871 290.934C95.2887 290.24 99.158 289.753 101.807 287.245C103.796 285.37 104.87 281.633 102.209 279.758Z" fill="#9C4DF4"/>
<path d="M89.9054 280.951C89.3561 282.874 88.8069 284.786 88.3308 286.721C88.2332 287.111 88.8068 287.257 88.9289 286.88C89.5514 284.98 90.1006 283.057 90.6499 281.146C90.7842 280.683 90.0396 280.488 89.9054 280.951Z" fill="black"/>
<path d="M87.4284 290.203C87.1477 291.165 86.867 292.115 86.5862 293.076C86.3055 294.038 86.098 295.012 85.8539 295.974C85.7563 296.375 86.3421 296.534 86.4642 296.144C86.7694 295.195 87.1111 294.245 87.3796 293.295L88.1853 290.41C88.3195 289.923 87.5627 289.716 87.4284 290.203Z" fill="black"/>
<path d="M86.4142 287.44C86.3166 287.415 86.1823 287.464 86.1579 287.586C86.0846 288 86.0236 288.414 85.9504 288.815C85.9382 288.925 85.9748 289.047 86.0968 289.071C86.1945 289.095 86.3288 289.047 86.3532 288.925C86.4264 288.511 86.4874 288.097 86.5607 287.695C86.5729 287.586 86.5241 287.464 86.4142 287.44Z" fill="black"/>
<path d="M258.627 245.646C258.468 247.911 257.418 250.017 255.868 251.648C255.685 251.843 255.966 252.111 256.161 251.94C257.931 250.346 258.907 248.02 258.98 245.646C258.98 245.415 258.639 245.427 258.627 245.646Z" fill="black"/>
<path d="M143.83 195.916C142.89 195.49 141.951 195.052 141.011 194.638C140.815 194.553 140.632 194.845 140.84 194.93C141.78 195.368 142.719 195.782 143.659 196.208C143.855 196.294 144.038 196.001 143.83 195.916Z" fill="black"/>
<path d="M81.8858 224.123C79.4324 227.215 76.4419 229.845 73.7933 232.767C70.9859 235.859 68.8255 239.474 66.0181 242.567C63.5769 245.269 60.6597 247.546 57.4618 249.287C55.2037 250.516 49.943 253.474 47.2577 252.817C42.058 251.527 45.9517 242.798 47.5873 239.925C49.5402 236.48 52.2865 233.497 55.1915 230.831C58.2308 228.055 61.5264 225.584 64.7975 223.1C68.4715 220.3 72.1333 217.513 75.8073 214.713C76.6983 214.043 77.5649 213.337 78.4804 212.692C79.2371 212.156 80.0671 211.718 80.9948 211.608C82.5937 211.438 84.0462 212.485 84.8152 213.824C86.8292 217.342 84.034 221.42 81.8858 224.123Z" fill="#9C4DF4"/>
<path d="M26.2513 229.711C26.9959 225.718 28.6193 221.944 29.5469 218C30.7797 212.765 30.7797 207.323 31.744 202.04C32.7082 196.756 34.8809 191.339 39.2751 188.247C40.4956 187.395 41.8871 186.725 43.364 186.615C46.0371 186.408 48.5881 188.064 50.1017 190.28C51.603 192.483 52.2255 195.174 52.5916 197.828C54.0441 208.261 51.9936 219.156 46.8305 228.348C45.2193 231.221 43.3152 233.923 41.9115 236.894C40.044 240.826 39.0675 245.16 38.8722 249.506C38.7868 251.393 38.8234 253.365 37.9934 255.069C37.2 256.725 34.295 259.245 32.2933 258.186C30.5112 257.236 29.2784 251.648 28.6437 249.847C26.41 243.419 24.9819 236.504 26.2513 229.711Z" fill="#9C4DF4"/>
<path d="M8.74875 229.638C8.38257 227.69 8.07742 225.45 9.35904 223.94C11.1289 221.847 14.693 222.711 16.6093 224.671C18.8186 226.923 19.734 230.149 20.0148 233.29C20.2955 236.431 20.0392 239.596 20.2833 242.725C20.6617 247.533 22.224 252.147 23.2371 256.859C24.1648 261.144 22.4071 264.066 19.2214 259.829C17.061 256.968 15.4376 253.657 14.1071 250.346C11.4585 243.699 10.0792 236.626 8.74875 229.638Z" fill="#9C4DF4"/>
<path d="M68.4828 226.655C67.5186 228.408 66.4323 230.052 65.1384 231.574C63.8446 233.083 62.4165 234.483 60.9517 235.834C58.0101 238.537 54.8366 240.996 52.0415 243.857C50.6988 245.233 49.4416 246.694 48.3675 248.288C47.1103 250.151 46.1826 252.184 45.4747 254.314C44.6325 256.834 43.9978 259.427 43.3021 261.996C42.5697 264.674 41.8374 267.365 41.105 270.043C40.3117 272.965 39.5183 275.874 38.8836 278.833C38.5784 280.269 38.3098 281.718 38.0901 283.179C37.9925 283.86 37.9192 284.554 37.846 285.248C37.8094 285.626 37.785 285.991 37.7606 286.368C37.7484 286.514 37.7484 286.66 37.7484 286.807C37.785 286.466 37.846 286.125 37.8827 285.808C37.9803 285.041 38.0902 284.274 38.2122 283.507C38.4197 282.205 38.6761 280.914 38.9568 279.636C39.5305 277.055 40.2384 274.523 40.9464 271.979C42.3989 266.756 43.7781 261.509 45.316 256.323C46.0117 253.986 46.8418 251.685 48.1112 249.579C49.1243 247.911 50.3449 246.389 51.6753 244.965C54.3972 242.067 57.5219 239.596 60.5246 236.991C63.7958 234.142 67.2134 231.001 69.1419 227.045C69.3494 226.594 68.727 226.217 68.4828 226.655Z" fill="#1C1C1B"/>
<path d="M37.7114 287.403C37.7358 287.208 37.7358 287.001 37.748 286.794C37.7114 287.001 37.6992 287.208 37.7114 287.403Z" fill="#1C1C1B"/>
<path d="M37.7246 287.768C37.7124 287.647 37.7124 287.525 37.7124 287.403C37.7002 287.525 37.6758 287.647 37.6513 287.756C37.6269 287.817 37.7246 287.817 37.7246 287.768Z" fill="#1C1C1B"/>
<path d="M36.1623 235.068C36.5162 230.405 37.3463 225.767 38.9575 221.36C39.0063 221.226 38.7988 221.165 38.75 221.299C35.7839 229.09 35.3445 237.478 35.4422 245.732C35.491 249.981 35.674 254.229 35.7107 258.478C35.7595 262.885 35.6008 267.28 35.2225 271.662C34.8197 276.301 34.2338 280.915 33.6235 285.528C28.5336 274.779 23.8831 263.822 19.7575 252.671C18.5492 249.396 17.3774 246.097 16.2545 242.786C16.108 242.36 15.4367 242.542 15.5709 242.968C19.5256 254.704 24.0296 266.257 29.0829 277.567C30.511 280.756 31.9757 283.921 33.5014 287.075C33.6845 287.464 34.185 287.208 34.2216 286.88C35.3567 278.005 36.4186 269.118 36.3576 260.158C36.2966 251.819 35.5276 243.443 36.1623 235.068Z" fill="#1C1C1B"/>
<path d="M19.4285 273.294C21.3815 282.266 22.7119 291.664 21.3082 300.697C24.4573 300.709 40.3372 300.795 45.4515 300.746C45.3904 299.955 45.3294 299.175 45.2928 298.384C44.9999 292.784 45.366 287.148 47.0382 281.767C47.441 280.464 48.2833 276.228 48.8203 274.962L48.7226 273.294H19.4285Z" fill="#FF6652"/>
<path d="M49.9434 268.315L18.5376 268.363C18.269 268.363 18.0128 268.388 17.7564 268.436V275.68C18.0128 275.729 18.269 275.753 18.5376 275.753L49.2842 275.692L49.9434 268.315Z" fill="#1A0400"/>
<path d="M44.2422 279.308C43.8028 279.819 43.461 280.464 43.1559 281.061C42.8508 281.657 42.5944 282.29 42.3503 282.923C41.862 284.226 41.5691 285.541 41.4348 286.916C41.386 287.489 42.3503 287.635 42.4602 287.05C42.6921 285.784 42.9972 284.506 43.4122 283.276C43.6197 282.668 43.8638 282.071 44.1324 281.475C44.3887 280.89 44.7182 280.318 44.9623 279.722C45.121 279.332 44.5108 278.991 44.2422 279.308Z" fill="#1C1C1B"/>
<path d="M42.0216 290.544C42.0338 290.13 41.3869 290.13 41.3747 290.544C41.3015 292.638 40.8987 294.707 40.9597 296.814C40.9841 297.483 41.9117 297.447 41.9728 296.814C42.2047 294.72 41.9484 292.638 42.0216 290.544Z" fill="#1C1C1B"/>
<path d="M39.9825 298.908C37.8099 298.555 35.5763 298.445 33.3914 298.713C32.6591 298.798 32.7933 299.809 33.5257 299.711C35.6373 299.431 37.7733 299.37 39.885 299.614C40.2877 299.662 40.3853 298.969 39.9825 298.908Z" fill="#1C1C1B"/>
<path d="M295.575 207.299C293.378 208.273 290.619 210.087 290.29 212.68C290.192 213.447 288.996 213.788 288.813 212.875C288.532 211.487 287.91 210.221 286.884 209.222C285.823 208.176 284.394 207.725 283.247 206.788C282.893 206.496 283.088 205.826 283.528 205.741C285.774 205.302 288.19 204.073 289.191 201.979C289.081 201.602 288.996 201.2 288.959 200.786C288.911 200.226 289.423 199.763 289.936 199.678C290.51 199.593 290.986 199.958 291.169 200.482C291.657 201.906 292.353 203.16 293.219 204.329C293.952 204.962 294.782 205.509 295.563 206.045C295.966 206.337 296.112 207.068 295.575 207.299Z" fill="#D9E0FC"/>
<path d="M303.948 221.567C303.423 221.056 302.861 220.569 302.312 220.094C302.605 219.948 302.91 219.789 303.203 219.631C303.594 219.412 303.753 218.852 303.508 218.475C303.24 218.049 302.788 217.988 302.349 218.17C302.215 218.231 302.08 218.292 301.958 218.353C302.117 217.379 302.288 216.393 302.508 215.419C302.678 214.652 301.519 214.323 301.324 215.09C301.043 216.21 300.725 217.33 300.42 218.438C299.895 217.988 299.371 217.525 298.846 217.075C298.565 216.831 298.15 216.807 297.881 217.075C297.613 217.342 297.625 217.769 297.881 218.036C298.382 218.572 298.882 219.108 299.371 219.656C299.126 219.789 298.87 219.923 298.638 220.082C298.248 220.325 297.82 220.52 297.405 220.727C297.039 220.909 296.929 221.433 297.125 221.774C297.344 222.151 297.796 222.236 298.174 222.042C298.553 221.847 298.943 221.628 299.334 221.482C299.456 221.433 299.566 221.384 299.676 221.336C299.615 221.579 299.554 221.823 299.505 222.054C299.31 222.869 299.017 223.709 298.98 224.549C298.931 225.73 300.677 225.913 301.006 224.817C301.226 224.063 301.226 223.235 301.324 222.456C301.348 222.261 301.385 222.066 301.409 221.859C301.763 222.236 302.129 222.614 302.508 222.991C302.886 223.356 303.569 223.405 303.948 222.991C304.314 222.602 304.351 221.956 303.948 221.567Z" fill="#D9E0FC"/>
<path d="M28.2653 54.6503C26.6663 53.9442 25.4824 52.6781 24.8599 51.059C24.6402 50.4746 23.8468 50.4381 23.6393 51.059C23.3708 51.8503 22.9069 52.5564 22.3821 53.1894C22.3577 53.2259 22.3332 53.2625 22.3088 53.2868C21.8328 53.6885 21.2835 54.0294 20.6854 54.2242C20.2948 54.3459 20.2704 54.9303 20.6854 55.0398C21.5032 55.259 22.2112 55.5877 22.8092 56.1964C23.3829 56.7929 23.7491 57.5233 23.8834 58.3268C23.9932 58.9842 24.9941 58.7042 24.8965 58.0468C24.7866 57.3529 25.519 56.8416 26.0438 56.5616C26.764 56.172 27.533 55.8433 28.2897 55.5025C28.5949 55.3685 28.5949 54.7964 28.2653 54.6503Z" fill="#D9E0FC"/>
<path d="M20.0387 37.7164C20.417 37.8747 20.9053 38.2034 20.7344 38.5686C20.6368 38.7756 20.3926 38.8486 20.1729 38.9095C17.8782 39.4695 13.6428 40.346 13.7893 43.5356C13.8137 44.2173 12.7883 44.3269 12.6175 43.6938C12.0194 41.3564 10.5913 39.2382 8.41864 38.1182C7.9304 37.8625 8.19896 37.193 8.67499 37.1564C9.89557 37.0712 11.0551 36.5721 11.9827 35.793C13.0935 34.8677 13.3742 34.3443 13.6549 32.9808C13.7648 32.433 14.0822 31.8608 14.6315 31.7269C14.7291 31.7025 14.8512 31.6903 14.9488 31.739C15.1441 31.8121 15.2295 32.0434 15.2906 32.2382C16.0473 34.4295 17.512 36.4504 19.5626 37.5095C19.7335 37.5704 19.88 37.6434 20.0387 37.7164Z" fill="#D9E0FC"/>
<path d="M268.442 71.0488C267.868 70.6957 266.879 70.5983 266.476 70.0383C265.756 69.0157 267.514 69.0522 268.002 68.9183C268.905 68.6748 269.638 67.9809 270.126 67.1774C270.614 66.374 270.883 65.4609 271.139 64.5601C271.749 64.8888 271.871 65.6679 272.128 66.3131C272.567 67.4088 273.568 68.2122 274.703 68.5044C275.106 68.6018 277.291 69.0766 275.777 69.8557C274.764 70.367 273.617 70.8053 272.787 71.6088C272.262 72.1201 271.481 74.567 270.883 74.4696C270.614 74.4331 270.419 74.214 270.297 73.9705C270.187 73.727 270.138 73.4592 270.065 73.2035C269.931 72.7409 269.711 72.3027 269.406 71.9253C269.15 71.5844 268.82 71.2922 268.442 71.0488Z" fill="#D9E0FC"/>
<path d="M11.5688 76.0277C9.04217 76.8434 7.63852 79.3025 7.01602 81.7129C6.83293 82.3947 5.72218 82.2607 5.771 81.5425C5.84423 80.2642 5.36821 79.0468 4.55041 78.0729C3.57394 76.9042 2.38997 76.5512 1.03511 75.9425C0.839818 75.8573 0.607901 75.7355 0.571282 75.5164C0.534665 75.3094 0.705547 75.1147 0.87643 74.9929C1.45011 74.6033 2.19468 74.6399 2.87821 74.506C4.5138 74.2016 5.89305 72.826 6.22261 71.2068C6.29585 70.866 6.32027 70.5007 6.46674 70.1842C6.61321 69.8677 6.94276 69.5999 7.29673 69.6486C7.72394 69.7094 7.9436 70.1721 8.09007 70.5738C8.38301 71.3895 8.57835 72.1564 9.20085 72.7773C9.94541 73.5199 10.8486 74.1042 11.7518 74.6155C12.3499 74.9564 12.1791 75.8329 11.5688 76.0277Z" fill="#D9E0FC"/>
</svg>
