<svg width="32" height="32" viewBox="0 0 32 32" fill="none" xmlns="http://www.w3.org/2000/svg">
<path d="M11.3324 15.3334C14.2657 15.3334 16.6657 12.9334 16.6657 10.0001C16.6657 7.06675 14.2657 4.66675 11.3324 4.66675C8.39907 4.66675 5.99907 7.06675 5.99907 10.0001C5.99907 12.9334 8.39907 15.3334 11.3324 15.3334ZM17.3324 14.1334C19.5991 16.0001 22.9324 15.6001 24.7991 13.3334C26.6657 11.0667 26.2657 7.73341 23.9991 5.86675C23.0657 5.06675 21.8657 4.66675 20.6657 4.66675C19.4657 4.66675 18.2657 5.06675 17.3324 5.86675C19.5991 7.73341 19.9991 10.9334 18.1324 13.3334C17.9991 13.6001 17.5991 13.8667 17.3324 14.1334ZM30.5324 25.8667C29.7324 20.9334 25.5991 17.3334 20.6657 17.3334C19.4657 17.3334 18.3991 17.4667 17.3324 17.8667C20.7991 19.0667 23.3324 22.1334 23.8657 25.7334C23.9991 26.4001 23.4657 27.2001 22.6657 27.2001H22.5324H29.1991C29.9991 27.2001 30.5324 26.6667 30.5324 25.8667C30.5324 26.0001 30.5324 25.8667 30.5324 25.8667ZM11.3324 17.3334C6.39907 17.3334 2.1324 20.9334 1.46573 25.8667C1.3324 26.5334 1.86573 27.3334 2.66573 27.3334H2.79906H19.8657C20.6657 27.3334 21.1991 26.8001 21.1991 26.0001V25.8667C20.5324 20.9334 16.2657 17.3334 11.3324 17.3334Z" fill="#7282A0"/>
</svg>
