<svg width="32" height="32" viewBox="0 0 32 32" fill="none" xmlns="http://www.w3.org/2000/svg">
<path d="M27.3594 20.2799L24.9594 17.8666V11.9199C24.9914 9.71171 24.2233 7.56649 22.7969 5.88039C21.3706 4.19429 19.3824 3.08119 17.1994 2.74661C15.9325 2.57976 14.6446 2.68503 13.4216 3.05537C12.1986 3.42572 11.0686 4.05264 10.1071 4.89429C9.14555 5.73594 8.37458 6.77298 7.84559 7.9362C7.31661 9.09942 7.04178 10.3621 7.03945 11.6399V17.8666L4.63945 20.2799C4.33799 20.5864 4.13356 20.975 4.05171 21.397C3.96987 21.819 4.01424 22.2558 4.17928 22.6528C4.34433 23.0497 4.62271 23.3892 4.97965 23.6288C5.33658 23.8685 5.75622 23.9975 6.18611 23.9999H10.6661V24.4533C10.7284 25.8069 11.3247 27.0806 12.3244 27.9953C13.3241 28.91 14.6457 29.3912 15.9994 29.3333C17.3532 29.3912 18.6748 28.91 19.6745 27.9953C20.6742 27.0806 21.2705 25.8069 21.3328 24.4533V23.9999H25.8128C26.2427 23.9975 26.6623 23.8685 27.0192 23.6288C27.3762 23.3892 27.6546 23.0497 27.8196 22.6528C27.9847 22.2558 28.029 21.819 27.9472 21.397C27.8653 20.975 27.6609 20.5864 27.3594 20.2799ZM18.6661 24.4533C18.5922 25.0946 18.2736 25.6827 17.7769 26.095C17.2801 26.5073 16.6434 26.7121 15.9994 26.6666C15.3555 26.7121 14.7188 26.5073 14.222 26.095C13.7253 25.6827 13.4067 25.0946 13.3328 24.4533V23.9999H18.6661V24.4533Z" fill="#A098AE"/>
</svg>
