<svg width="32" height="32" viewBox="0 0 32 32" fill="none" xmlns="http://www.w3.org/2000/svg">
<path d="M22.3998 3.84009H9.59984C8.07292 3.84246 6.60922 4.45007 5.52953 5.52977C4.44983 6.60947 3.84221 8.07317 3.83984 9.60009V22.4001C3.84221 23.927 4.44983 25.3907 5.52953 26.4704C6.60922 27.5501 8.07292 28.1577 9.59984 28.1601H22.3998C23.9268 28.1577 25.3905 27.5501 26.4702 26.4704C27.5499 25.3907 28.1575 23.927 28.1598 22.4001V9.60009C28.1575 8.07317 27.5499 6.60947 26.4702 5.52977C25.3905 4.45007 23.9268 3.84246 22.3998 3.84009ZM23.3982 16.6401H19.9934L17.843 20.8769C17.791 20.9815 17.7106 21.0693 17.611 21.1305C17.5114 21.1916 17.3967 21.2234 17.2798 21.2225H17.2414C17.1174 21.2182 16.9975 21.1769 16.8972 21.1039C16.7968 21.0309 16.7206 20.9296 16.6782 20.8129L14.0926 14.1441L12.9534 16.2945C12.9026 16.4001 12.8225 16.4888 12.7226 16.5501C12.6228 16.6113 12.5074 16.6426 12.3902 16.6401H8.60144C8.4317 16.6401 8.26892 16.5727 8.1489 16.4526C8.02887 16.3326 7.96144 16.1698 7.96144 16.0001C7.96144 15.8303 8.02887 15.6676 8.1489 15.5475C8.26892 15.4275 8.4317 15.3601 8.60144 15.3601H12.0062L13.619 12.3137C13.6738 12.203 13.7602 12.111 13.8673 12.0495C13.9744 11.9879 14.0974 11.9596 14.2206 11.9681C14.344 11.9747 14.4629 12.0169 14.5628 12.0896C14.6628 12.1623 14.7395 12.2623 14.7838 12.3777L17.3566 19.0209L19.0334 15.7057C19.0904 15.6024 19.1737 15.5159 19.2749 15.4552C19.376 15.3945 19.4915 15.3617 19.6094 15.3601H23.3982C23.568 15.3601 23.7308 15.4275 23.8508 15.5475C23.9708 15.6676 24.0382 15.8303 24.0382 16.0001C24.0382 16.1698 23.9708 16.3326 23.8508 16.4526C23.7308 16.5727 23.568 16.6401 23.3982 16.6401Z" fill="#7282A0"/>
</svg>
