<svg width="48" height="48" viewBox="0 0 48 48" fill="none" xmlns="http://www.w3.org/2000/svg">
<path d="M41.0221 40.8533C38.2085 43.7232 34.6072 45.8615 30.6119 47.0432C28.4735 47.6622 26.2789 47.9998 23.9718 47.9998C21.8897 47.9998 19.9202 47.7185 18.007 47.2683C14.4056 46.3117 11.0855 44.5673 8.32822 42.2038C3.20749 37.8146 0 31.2871 0 24.028C0 10.7479 10.7479 0 24.028 0C37.3082 0 47.9998 10.7479 47.9998 23.9718C47.9998 30.5556 45.3551 36.5204 41.0221 40.8533Z" fill="#BCC3FF"/>
<path d="M33.2573 18.6821C32.7508 8.66575 28.5304 8.94711 26.3358 8.72202C22.0029 8.21558 20.0897 10.579 20.0897 10.579C16.5445 11.5356 16.4883 25.9412 16.4883 25.9412C18.4578 26.5602 21.3839 27.2354 24.9291 27.1792C28.2491 27.1792 31.0064 26.5602 32.9197 25.9975C32.9197 25.9975 33.4824 23.2401 33.2573 18.6821Z" fill="#5A281D"/>
<path d="M23.9714 47.9999C26.2785 47.9999 28.5294 47.6623 30.6115 47.0433C33.8752 46.0866 36.8014 44.511 39.3336 42.3727L38.2082 34.776C37.8705 32.3563 36.3512 30.4994 34.4942 29.9929L28.8108 28.5299L27.1789 28.136L24.0277 27.3481L21.6643 27.8546L19.4134 28.361L15.2493 29.3177C13.2797 29.7678 11.7604 31.6811 11.4228 34.157L10.0723 43.5544C12.4357 45.2426 15.1367 46.4806 18.0066 47.2684C19.9198 47.7748 21.9456 47.9999 23.9714 47.9999Z" fill="#BB5A39"/>
<path opacity="0.3" d="M38.1531 40.5719C36.8026 38.8838 36.1836 36.5204 36.4087 34.1007C36.9714 34.0444 37.5341 33.9881 38.0406 33.9881C37.9843 33.8193 37.928 33.5942 37.8718 33.4254C37.4216 33.4254 36.9714 33.4817 36.465 33.538V33.4817C36.5775 32.8627 36.6901 32.3 36.8589 31.681C36.7463 31.5122 36.5775 31.3434 36.4087 31.1746C36.1836 31.9061 35.9585 32.6376 35.846 33.3692C35.846 33.4254 35.846 33.538 35.7897 33.5942C34.5517 33.8193 33.3137 34.2132 32.0758 34.776C29.431 35.9577 27.1801 37.8146 25.4357 40.1218C25.3231 40.0092 25.1543 39.953 24.9855 39.8967C21.159 37.7584 16.2634 37.8709 12.4932 40.1218C11.6491 40.6282 10.8613 41.3035 10.1298 41.9787L9.96094 42.9916C10.7487 42.0913 11.7054 41.2472 12.7745 40.6282C16.3759 38.4336 21.0465 38.3774 24.7042 40.4031C24.8167 40.4594 24.9292 40.5157 25.0418 40.6282C23.4662 42.8228 22.3407 45.3551 21.8906 47.9436C22.0594 47.9436 22.2845 47.9998 22.4533 47.9998C22.9597 45.4676 24.0289 43.0479 25.5482 40.9096C27.7428 42.3726 29.431 44.6235 30.2188 47.1558C30.3313 47.1558 30.3876 47.0995 30.5001 47.0995C30.6127 47.0995 30.669 47.0432 30.7815 47.0432C29.9374 44.3984 28.193 42.035 25.8859 40.5157C27.574 38.3211 29.7686 36.5204 32.2446 35.3949C33.37 34.8885 34.5517 34.4946 35.6772 34.2695C35.4521 36.8017 36.1273 39.1652 37.5341 40.9659C37.9843 41.5848 38.547 42.0913 39.166 42.4852C39.166 42.4852 39.166 42.4852 39.2223 42.4852L39.2785 41.6974C38.8846 41.3598 38.4907 41.0221 38.1531 40.5719Z" fill="white"/>
<path opacity="0.3" d="M11.0305 36.9143L10.918 37.5896C11.9871 37.0831 12.9437 36.4641 13.8441 35.6763C14.5756 35.0573 15.1946 34.3821 15.6448 33.6505C16.1512 33.8756 16.714 34.0444 17.2204 34.157C22.0035 35.2261 27.2368 33.5943 30.5005 29.9929C30.7256 29.7115 31.007 29.4302 31.1758 29.1488L30.5568 28.98C30.388 29.2051 30.2192 29.3739 30.0504 29.599C26.8992 33.0878 21.891 34.6634 17.2767 33.5943C16.8265 33.4817 16.3201 33.3129 15.8699 33.1441C16.0387 32.8627 16.1512 32.5814 16.2638 32.2437C16.6577 31.1183 16.6577 29.9929 16.3763 28.98L15.8136 29.0925C16.095 29.9929 16.095 31.0058 15.7573 32.0187C15.6448 32.3 15.5323 32.5814 15.3634 32.8627C14.2943 32.3 13.3939 31.5122 12.9438 30.5556C12.7749 30.7244 12.6624 30.8932 12.5498 31.062C13.1126 32.0187 14.0129 32.8065 15.0821 33.3129C14.7444 34.1007 14.1817 34.7197 13.5065 35.2824C12.7749 35.9014 11.9309 36.4641 11.0305 36.9143Z" fill="white"/>
<path d="M21.3276 28.9238C21.2714 29.4866 21.6653 29.993 22.1717 30.1618C22.847 30.3306 23.7473 30.4995 24.7602 30.4432C25.4917 30.3869 26.167 30.2744 26.6734 30.1618C27.2362 29.993 27.5738 29.4866 27.5738 28.9238L27.0673 21.4397H21.8341L21.3276 28.9238Z" fill="#F79387"/>
<path d="M21.4961 25.885C22.6778 26.4478 24.985 27.1793 27.2921 25.4349L27.067 22.0586C26.6731 21.8335 26.2792 21.6084 25.829 21.3833H21.8337V21.4396L21.4961 25.885Z" fill="#D6735C"/>
<path d="M20.033 22.4521C21.5523 25.7721 24.3659 25.7159 25.21 25.6033C26.054 25.5471 31.231 24.9843 29.6554 14.1802C29.6554 14.2364 21.8337 14.4053 19.5828 13.9551C19.5828 13.9551 18.4573 19.0195 20.033 22.4521Z" fill="#F79387"/>
<path d="M21.8906 14.4053C21.8906 14.4053 24.1977 16.9375 29.9375 17.1626C29.9375 17.1626 29.9937 14.968 29.6561 13.6738C29.3185 12.3795 19.4709 13.2799 19.4709 13.2799C19.4709 13.2799 18.5706 16.0935 19.3021 16.9938C19.3021 16.9938 21.0465 15.8121 21.8906 14.4053Z" fill="#5A281D"/>
<path fill-rule="evenodd" clip-rule="evenodd" d="M19.8233 19.8806C19.1393 20.249 18.2025 19.8379 17.7309 18.9623C17.2593 18.0867 17.4315 17.0783 18.1155 16.7098C18.7996 16.3414 19.7364 16.7525 20.208 17.6281C20.6796 18.5037 20.5074 19.5121 19.8233 19.8806Z" fill="#F79387"/>
<path fill-rule="evenodd" clip-rule="evenodd" d="M31.7412 18.9398C31.2696 19.8154 30.3328 20.2265 29.6487 19.858C28.9647 19.4896 28.7925 18.4811 29.2641 17.6056C29.7357 16.73 30.6725 16.3189 31.3565 16.6873C32.0406 17.0558 32.2128 18.0642 31.7412 18.9398Z" fill="#F79387"/>
<path fill-rule="evenodd" clip-rule="evenodd" d="M18.7392 20.4267C18.4906 20.4267 18.2891 20.2252 18.2891 19.9765C18.2891 19.7279 18.4906 19.5264 18.7392 19.5264C18.9879 19.5264 19.1894 19.7279 19.1894 19.9765C19.1894 20.2252 18.9879 20.4267 18.7392 20.4267Z" fill="white"/>
<path fill-rule="evenodd" clip-rule="evenodd" d="M30.3877 20.4267C30.1391 20.4267 29.9375 20.2252 29.9375 19.9765C29.9375 19.7279 30.1391 19.5264 30.3877 19.5264C30.6363 19.5264 30.8379 19.7279 30.8379 19.9765C30.8379 20.2252 30.6363 20.4267 30.3877 20.4267Z" fill="white"/>
<path opacity="0.3" d="M16.2062 35.2825L14.293 45.9178C15.0245 46.2555 15.6998 46.5368 16.4313 46.7619L16.2062 35.2825Z" fill="#4A1300"/>
<path opacity="0.3" d="M34.2118 45.7489C34.887 45.4113 35.6186 45.0736 36.2376 44.6235L34.043 35.3386L34.2118 45.7489Z" fill="#4A1300"/>
</svg>
