<svg width="78" height="98" viewBox="0 0 78 98" fill="none" xmlns="http://www.w3.org/2000/svg">
<path opacity="0.25" d="M74.8247 77.8112C72.0989 77.3327 69.3731 76.8542 66.258 76.8542C56.523 76.8542 47.1774 80.2037 39 86.9025C30.8226 80.6821 21.477 76.8542 11.742 76.8542C9.01625 76.8542 5.90106 77.3327 3.17526 77.8112C1.22827 78.2897 -0.32933 80.6821 0.0600692 83.5531C0.449469 86.424 2.39647 87.8595 4.73286 87.381C7.06926 86.9025 9.40565 86.424 11.742 86.424C20.6982 86.424 29.265 89.7734 36.6636 96.4723C37.8318 97.9077 39.7788 97.9077 41.3364 96.4723C50.682 88.338 62.364 84.9885 73.2671 87.381C75.2141 87.8595 77.5505 85.9455 77.9399 83.5531C78.3293 80.6821 76.7717 78.2897 74.8247 77.8112ZM74.8247 1.25312C72.0989 0.77463 69.3731 0.296143 66.258 0.296143C56.523 0.296143 47.1774 3.64556 39 10.3444C30.8226 3.64556 21.477 0.296143 11.742 0.296143C9.01625 0.296143 5.90106 0.77463 3.17526 1.25312C1.61767 1.25312 0.0600692 3.64556 0.0600692 5.55951V62.9781C0.0600692 65.849 1.61767 67.763 3.95406 67.763C4.34346 67.763 4.34346 67.763 4.73286 67.763C7.06926 67.2845 9.40565 66.806 11.742 66.806C20.6982 66.806 29.265 70.1554 36.6636 76.8542C37.8318 78.2897 39.7788 78.2897 41.3364 76.8542C50.682 68.7199 62.364 65.3705 73.2671 67.763C75.2141 68.2415 77.5505 66.3275 77.9399 63.9351C77.9399 63.4566 77.9399 63.4566 77.9399 62.9781V5.55951C77.9399 3.64556 76.3823 1.25312 74.8247 1.25312Z" fill="white"/>
</svg>
