<svg width="32" height="32" viewBox="0 0 32 32" fill="none" xmlns="http://www.w3.org/2000/svg">
<path d="M15.9993 2.66675C8.66602 2.66675 2.66602 8.66675 2.66602 16.0001C2.66602 19.0667 3.73268 22.0001 5.73268 24.4001L3.06602 27.0667C2.53268 27.6001 2.53268 28.4001 3.06602 28.9334C3.33268 29.2001 3.59935 29.3334 3.99935 29.3334H15.9993C23.3327 29.3334 29.3327 23.3334 29.3327 16.0001C29.3327 8.66675 23.3327 2.66675 15.9993 2.66675ZM17.3327 20.0001H9.33268C8.53268 20.0001 7.99935 19.4667 7.99935 18.6667C7.99935 17.8667 8.53268 17.3334 9.33268 17.3334H17.3327C18.1327 17.3334 18.666 17.8667 18.666 18.6667C18.666 19.4667 18.1327 20.0001 17.3327 20.0001ZM22.666 14.6667H9.33268C8.53268 14.6667 7.99935 14.1334 7.99935 13.3334C7.99935 12.5334 8.53268 12.0001 9.33268 12.0001H22.666C23.466 12.0001 23.9993 12.5334 23.9993 13.3334C23.9993 14.1334 23.466 14.6667 22.666 14.6667Z" fill="#A098AE"/>
</svg>
